<svg xmlns="http://www.w3.org/2000/svg" viewBox="0 0 40 52">
  <ellipse cx="20" cy="47" rx="9" ry="3" fill="#082F49" opacity=".18"/>
  <circle cx="20" cy="10" r="8" fill="#0F172A"/>
  <circle cx="20" cy="10" r="6" fill="#E2E8F0"/>
  <path d="M10 22c0-4.4 3.6-8 8-8h4c4.4 0 8 3.6 8 8v15c0 3.3-2.7 6-6 6H16c-3.3 0-6-2.7-6-6Z" fill="#22D3EE"/>
  <rect x="15" y="18" width="10" height="18" rx="4" fill="#A5F3FC"/>
  <rect x="29" y="20" width="4" height="17" rx="2" fill="#F8FAFC"/>
  <rect x="30" y="14" width="2" height="10" rx="1" fill="#1E293B"/>
  <rect x="9" y="24" width="4" height="14" rx="2" fill="#0F172A"/>
  <rect x="27" y="24" width="4" height="14" rx="2" fill="#0F172A"/>
  <rect x="15" y="40" width="4" height="10" rx="2" fill="#0F172A"/>
  <rect x="21" y="40" width="4" height="10" rx="2" fill="#0F172A"/>
</svg>
