<svg xmlns="http://www.w3.org/2000/svg" viewBox="0 0 84 124">
  <defs>
    <linearGradient id="large-armor" x1="0" y1="0" x2="0" y2="1">
      <stop offset="0%" stop-color="#FB7185"/>
      <stop offset="100%" stop-color="#BE123C"/>
    </linearGradient>
    <linearGradient id="large-face" x1="0" y1="0" x2="0" y2="1">
      <stop offset="0%" stop-color="#FFF1F2"/>
      <stop offset="100%" stop-color="#FBCFE8"/>
    </linearGradient>
  </defs>
  <ellipse cx="42" cy="116" rx="19" ry="5" fill="#0F172A" opacity=".24"/>
  <path d="M24 20c0-9.9 8.1-18 18-18s18 8.1 18 18v6H24Z" fill="#4C0519"/>
  <rect x="24" y="16" width="36" height="10" rx="5" fill="#111827"/>
  <circle cx="42" cy="27" r="11" fill="#0F172A"/>
  <circle cx="42" cy="27" r="8.5" fill="url(#large-face)"/>
  <rect x="33" y="23" width="18" height="5" rx="2.5" fill="#881337"/>
  <path d="M14 40c0-4.4 3.6-8 8-8h8v18H22c-4.4 0-8-3.6-8-8Z" fill="#334155"/>
  <path d="M70 40c0-4.4-3.6-8-8-8h-8v18h8c4.4 0 8-3.6 8-8Z" fill="#334155"/>
  <path d="M18 52c0-11 9-20 20-20h8c11 0 20 9 20 20v25c0 8.3-6.7 15-15 15H33c-8.3 0-15-6.7-15-15Z" fill="#111827"/>
  <path d="M23 52c0-8.3 6.7-15 15-15h8c8.3 0 15 6.7 15 15v22c0 6.6-5.4 12-12 12H35c-6.6 0-12-5.4-12-12Z" fill="url(#large-armor)"/>
  <rect x="30" y="42" width="24" height="26" rx="6" fill="#FFE4E6"/>
  <path d="M30 58h24" stroke="#9F1239" stroke-width="3" stroke-linecap="round"/>
  <rect x="15" y="52" width="8" height="32" rx="4" fill="#111827"/>
  <rect x="61" y="52" width="8" height="32" rx="4" fill="#111827"/>
  <g transform="rotate(-14 54 62)">
    <rect x="49" y="44" width="10" height="38" rx="4" fill="#E5E7EB"/>
    <rect x="53" y="30" width="2.5" height="18" rx="1.25" fill="#1F2937"/>
  </g>
  <rect x="26" y="92" width="9" height="20" rx="4.5" fill="#111827"/>
  <rect x="49" y="92" width="9" height="20" rx="4.5" fill="#111827"/>
  <rect x="22" y="108" width="15" height="7" rx="3.5" fill="#475569"/>
  <rect x="47" y="108" width="15" height="7" rx="3.5" fill="#475569"/>
</svg>
