<svg xmlns="http://www.w3.org/2000/svg" viewBox="0 0 72 108">
  <defs>
    <linearGradient id="medium-armor" x1="0" y1="0" x2="0" y2="1">
      <stop offset="0%" stop-color="#FCD34D"/>
      <stop offset="100%" stop-color="#D97706"/>
    </linearGradient>
    <linearGradient id="medium-face" x1="0" y1="0" x2="0" y2="1">
      <stop offset="0%" stop-color="#F8FAFC"/>
      <stop offset="100%" stop-color="#CBD5E1"/>
    </linearGradient>
  </defs>
  <ellipse cx="36" cy="102" rx="16" ry="4.5" fill="#0F172A" opacity=".22"/>
  <path d="M22 18c0-7.7 6.3-14 14-14s14 6.3 14 14v5H22Z" fill="#78350F"/>
  <rect x="23" y="15" width="26" height="8" rx="4" fill="#111827"/>
  <circle cx="36" cy="24" r="10" fill="#0F172A"/>
  <circle cx="36" cy="24" r="8" fill="url(#medium-face)"/>
  <rect x="29" y="21" width="14" height="4" rx="2" fill="#92400E"/>
  <rect x="16" y="36" width="14" height="12" rx="6" fill="#374151"/>
  <rect x="42" y="36" width="14" height="12" rx="6" fill="#374151"/>
  <path d="M18 48c0-8.8 7.2-16 16-16h4c8.8 0 16 7.2 16 16v22c0 6.6-5.4 12-12 12H30c-6.6 0-12-5.4-12-12Z" fill="#111827"/>
  <path d="M22 48c0-6.6 5.4-12 12-12h4c6.6 0 12 5.4 12 12v20c0 5.5-4.5 10-10 10H32c-5.5 0-10-4.5-10-10Z" fill="url(#medium-armor)"/>
  <rect x="28" y="40" width="16" height="22" rx="5" fill="#FEF3C7"/>
  <path d="M24 58h24" stroke="#92400E" stroke-width="3" stroke-linecap="round"/>
  <g transform="rotate(-18 48 56)">
    <rect x="44" y="42" width="8" height="30" rx="3" fill="#E5E7EB"/>
    <rect x="47" y="30" width="2" height="16" rx="1" fill="#1F2937"/>
  </g>
  <rect x="16" y="48" width="7" height="26" rx="3.5" fill="#111827"/>
  <rect x="49" y="48" width="7" height="26" rx="3.5" fill="#111827"/>
  <rect x="25" y="80" width="7" height="18" rx="3.5" fill="#111827"/>
  <rect x="40" y="80" width="7" height="18" rx="3.5" fill="#111827"/>
  <rect x="22" y="96" width="12" height="6" rx="3" fill="#475569"/>
  <rect x="38" y="96" width="12" height="6" rx="3" fill="#475569"/>
</svg>
