<svg xmlns="http://www.w3.org/2000/svg" viewBox="0 0 96 128">
  <defs>
    <linearGradient id="body" x1="0" y1="0" x2="0" y2="1">
      <stop offset="0%" stop-color="#8BE9FD"/>
      <stop offset="100%" stop-color="#0891B2"/>
    </linearGradient>
    <linearGradient id="glass" x1="0" y1="0" x2="0" y2="1">
      <stop offset="0%" stop-color="#E0F2FE"/>
      <stop offset="100%" stop-color="#67E8F9"/>
    </linearGradient>
  </defs>
  <ellipse cx="48" cy="118" rx="22" ry="6" fill="#082F49" opacity=".28"/>
  <path d="M24 18h48l10 20v56c0 12-10 22-22 22H36c-12 0-22-10-22-22V38Z" fill="#0F172A"/>
  <path d="M28 24h40l8 16v50c0 10-8 18-18 18H38c-10 0-18-8-18-18V40Z" fill="url(#body)"/>
  <path d="M38 8h20l8 14v8H30v-8Z" fill="#134E4A"/>
  <rect x="34" y="34" width="28" height="28" rx="8" fill="url(#glass)"/>
  <rect x="30" y="68" width="36" height="30" rx="10" fill="#22D3EE"/>
  <rect x="42" y="2" width="12" height="18" rx="4" fill="#F8FAFC"/>
  <rect x="44" y="-2" width="8" height="10" rx="3" fill="#1E293B"/>
  <rect x="20" y="48" width="8" height="32" rx="4" fill="#1E293B"/>
  <rect x="68" y="48" width="8" height="32" rx="4" fill="#1E293B"/>
  <rect x="16" y="52" width="10" height="28" rx="5" fill="#334155"/>
  <rect x="70" y="52" width="10" height="28" rx="5" fill="#334155"/>
  <rect x="33" y="106" width="10" height="12" rx="4" fill="#E2E8F0"/>
  <rect x="53" y="106" width="10" height="12" rx="4" fill="#E2E8F0"/>
  <circle cx="48" cy="18" r="5" fill="#A7F3D0"/>
</svg>
